PathFileType	4	(X/Y/Z)	./resultDataOpenSim/trcMotMarkerGrf/sub06/qtm-13-06.trc
DataRate	CameraRate	NumFrames	NumMarkers	Units	OrigDataRate	OrigDataStartFrame	OrigNumFrames
250.000000	250.000000	8	24	m	250.000000	67	534
Frame#	Time	L.Toe.Tip			R.Toe.Tip			L.Ankle.Lat			R.Ankle.Lat			L.Ankle.Med			R.Ankle.Med			L.Heel			R.Heel			L.Knee.Lat			R.Knee.Lat			L.Knee.Med			R.Knee.Med			L.Thigh.Upper			R.Thigh.Upper			L.ASIS			R.ASIS			V.Sacral			L.Acromium			R.Acromium			C7			L.Elbow			R.Elbow			L.Wrist.Lat			R.Wrist.Lat
		X1	Y1	Z1	X2	Y2	Z2	X3	Y3	Z3	X4	Y4	Z4	X5	Y5	Z5	X6	Y6	Z6	X7	Y7	Z7	X8	Y8	Z8	X9	Y9	Z9	X10	Y10	Z10	X11	Y11	Z11	X12	Y12	Z12	X13	Y13	Z13	X14	Y14	Z14	X15	Y15	Z15	X16	Y16	Z16	X17	Y17	Z17	X18	Y18	Z18	X19	Y19	Z19	X20	Y20	Z20	X21	Y21	Z21	X22	Y22	Z22	X23	Y23	Z23	X24	Y24	Z24

67	0.264	-1.218487	0.08122392	-0.087736193	-0.75686531	0.03565015	0.071675105	-1.231913	0.21019691	-0.11161239	-0.89038588	0.061543772	0.096495756	-1.2086149	0.21421543	-0.031932042	-0.87419418	0.079595773	0.0090397682	-1.281506	0.26140103	-0.059191431	-0.94814319	0.038375999	0.03604501	-0.90253098	0.39036156	-0.14864532	-0.81023305	0.43964068	0.1257475	-0.89826369	0.38429187	-0.023340204	-0.8493519	0.43102577	0.0042072969	-0.95620458	0.78191362	-0.14771323	-0.92543801	0.79906797	0.19281689	-0.87719159	0.83106584	-0.11340059	-0.84184735	0.84945317	0.12924787	-1.0377629	0.92073575	0.035633773	-0.91279592	1.3334268	-0.16311044	-0.90619087	1.3105856	0.19899354	-0.98586067	1.3583763	0.018435869	-0.94139552	1.0118486	-0.221584	-1.0181646	1.0117984	0.24789961	-0.7691591	0.83521189	-0.22125133	-0.92453805	0.79568979	0.29600184
68	0.268	-1.2018417	0.080818606	-0.088208929	-0.75690804	0.035655984	0.071675915	-1.2177439	0.20945906	-0.11118046	-0.89044412	0.061565343	0.096532109	-1.1943022	0.21359606	-0.031582151	-0.87425111	0.079717038	0.0090754613	-1.2681928	0.25970534	-0.058311502	-0.94817813	0.038451148	0.036089851	-0.89059091	0.39299992	-0.148556	-0.80896744	0.43956698	0.12587164	-0.88579269	0.38675781	-0.02301903	-0.84803335	0.43132325	0.0042137923	-0.94971859	0.78411423	-0.14747508	-0.9197516	0.80013112	0.19337796	-0.87096489	0.83319176	-0.11300273	-0.83597024	0.85101634	0.13017322	-1.0312439	0.92199311	0.035936647	-0.9073644	1.3352031	-0.16309519	-0.90004855	1.3127535	0.19889531	-0.98006214	1.3601056	0.018532155	-0.93769653	1.0139599	-0.22161907	-1.0104373	1.0133003	0.24874282	-0.76709902	0.83567864	-0.2217898	-0.91408258	0.79811675	0.29615105
69	0.272	-1.1850325	0.080285124	-0.088646516	-0.75694852	0.035661554	0.071669985	-1.2034759	0.20852774	-0.11075519	-0.89049112	0.061597162	0.096551012	-1.1801311	0.21280053	-0.0311621	-0.87430923	0.079841983	0.0091123413	-1.2549029	0.2578417	-0.057372186	-0.94822314	0.038500499	0.036131395	-0.87872367	0.39572571	-0.1484349	-0.80791329	0.43951729	0.12597075	-0.87331239	0.38936258	-0.022766014	-0.8470319	0.43161032	0.0042323445	-0.94323445	0.78630825	-0.14730454	-0.9132529	0.80125824	0.19416175	-0.86471367	0.83535767	-0.1125845	-0.82975237	0.8525998	0.13111319	-1.0247841	0.92327692	0.036101702	-0.90191578	1.3369613	-0.16307701	-0.89379381	1.3148872	0.19877686	-0.97426995	1.3617997	0.018630427	-0.93397575	1.0161106	-0.22137479	-1.0027151	1.0148119	0.24960508	-0.76506807	0.83619372	-0.22234923	-0.90357054	0.8005823	0.29626426
70	0.276	-1.1681193	0.079627691	-0.088943064	-0.75698628	0.03566487	0.071661154	-1.1891012	0.20741986	-0.11034247	-0.89051796	0.061629837	0.096550892	-1.1661929	0.21185259	-0.030642012	-0.87436855	0.079966755	0.0091466774	-1.2415795	0.25573686	-0.056452513	-0.94827311	0.03852614	0.036164569	-0.86687588	0.39852107	-0.14827695	-0.80713564	0.43951169	0.12607662	-0.86093096	0.39210645	-0.022550095	-0.84627002	0.43188289	0.0042883895	-0.93674768	0.7885015	-0.14719381	-0.90679201	0.80236646	0.19492017	-0.85837219	0.83757742	-0.11214481	-0.82341351	0.85417927	0.13203577	-1.0184364	0.92462783	0.036152418	-0.89645241	1.3386993	-0.16304909	-0.88742922	1.3169886	0.19864299	-0.9684872	1.3634558	0.01872668	-0.93031898	1.0183023	-0.22106113	-0.99495653	1.0163113	0.25044795	-0.76306609	0.83675148	-0.22292509	-0.89301774	0.80308758	0.29635122
71	0.28	-1.1510545	0.078861524	-0.089118951	-0.7570174	0.03566498	0.071651651	-1.1746146	0.20614359	-0.10993563	-0.89052258	0.061643329	0.096522931	-1.1523624	0.21075869	-0.030057191	-0.87442712	0.080089759	0.0091751355	-1.2280971	0.25327707	-0.055722284	-0.94831638	0.0385553	0.036181555	-0.85499269	0.40136886	-0.14807761	-0.80647123	0.43956221	0.12627391	-0.84873919	0.39496966	-0.022344299	-0.84548824	0.43214424	0.0043965393	-0.93020433	0.79069608	-0.14708294	-0.90106733	0.80341671	0.19542185	-0.85189366	0.83984034	-0.11168215	-0.81752403	0.85574036	0.13285014	-1.0122071	0.92604016	0.03611844	-0.89097923	1.340411	-0.16301349	-0.88104286	1.3190782	0.19850287	-0.96270873	1.36508	0.018818335	-0.92675631	1.0205098	-0.22081583	-0.98710942	1.0177696	0.25123481	-0.76110041	0.83734463	-0.22352268	-0.88243728	0.80563072	0.29641725
72	0.284	-1.1337035	0.078017343	-0.089311454	-0.75703685	0.035663107	0.07164301	-1.1600111	0.20469156	-0.10952975	-0.89051758	0.061624846	0.09646391	-1.1383238	0.20950901	-0.02950095	-0.87448118	0.080212527	0.0091964856	-1.2143817	0.25041157	-0.055262978	-0.94834562	0.038618354	0.036177942	-0.84310337	0.40425489	-0.14783028	-0.80565199	0.43965118	0.1265879	-0.83678966	0.39792626	-0.022129629	-0.844628	0.43237219	0.0045295618	-0.92355684	0.79288074	-0.14690768	-0.8962249	0.80440951	0.19565178	-0.84535802	0.84210862	-0.11121979	-0.81252828	0.85728862	0.13347335	-1.0060408	0.92745198	0.03603951	-0.8855019	1.342089	-0.16297603	-0.87472979	1.3211752	0.19836003	-0.95693209	1.3666704	0.0189024	-0.92320354	1.0226841	-0.22060114	-0.97916173	1.0191737	0.25196111	-0.75917969	0.83796544	-0.224147	-0.87183484	0.80820289	0.29646036
73	0.288	-1.1160062	0.077123052	-0.089589429	-0.75704314	0.035661775	0.071635792	-1.145289	0.20305341	-0.10912817	-0.89051378	0.061594637	0.096391463	-1.1237989	0.20809435	-0.02903637	-0.87452688	0.080337129	0.0092107576	-1.2005265	0.24722389	-0.054889653	-0.94837044	0.038716827	0.036169017	-0.83128425	0.40716404	-0.14753637	-0.80467773	0.43972907	0.12690569	-0.82503976	0.4009724	-0.021882564	-0.84398664	0.43248013	0.0046200328	-0.91681739	0.79503902	-0.14668944	-0.8919227	0.80536024	0.19579719	-0.83888224	0.84434757	-0.11077788	-0.80813523	0.85883781	0.13393211	-0.99987331	0.92880407	0.035964633	-0.88002332	1.3437255	-0.16293803	-0.86849125	1.3232725	0.1982068	-0.95116404	1.3682163	0.018977776	-0.91953179	1.0247803	-0.22030204	-0.97118518	1.0205447	0.25267375	-0.75729615	0.83860664	-0.22478822	-0.86121798	0.81079759	0.29647625
74	0.292	-1.0979835	0.076199452	-0.089914647	-0.7570384	0.035662506	0.071629186	-1.1304508	0.2012294	-0.10873504	-0.89050552	0.061593079	0.096334392	-1.1086054	0.20651761	-0.028679522	-0.87456082	0.080464079	0.0092198829	-1.1866718	0.24383518	-0.054358564	-0.94841767	0.038824682	0.036201327	-0.81954653	0.41008411	-0.14721272	-0.80389153	0.43973445	0.12707763	-0.81339355	0.40412131	-0.021576798	-0.84378776	0.43240129	0.0046096281	-0.91002701	0.79715739	-0.14654559	-0.88762257	0.80628415	0.19600604	-0.8324963	0.84654859	-0.11034739	-0.80358379	0.86039267	0.13434114	-0.99376522	0.93014061	0.035921565	-0.87454424	1.3453115	-0.16289736	-0.86227507	1.3253407	0.19803703	-0.94541326	1.3697078	0.019048008	-0.9156814	1.0267841	-0.21986345	-0.96327957	1.0219115	0.25342992	-0.7554152	0.8392582	-0.22542219	-0.85059451	0.81341996	0.2964647
